<?xml version="1.0" standalone="no"?>
<!DOCTYPE svg PUBLIC "-//W3C//DTD SVG 20010904//EN"
 "http://www.w3.org/TR/2001/REC-SVG-20010904/DTD/svg10.dtd">
<svg version="1.0" xmlns="http://www.w3.org/2000/svg"
 width="4096.000000pt" height="4096.000000pt" viewBox="0 0 4096.000000 4096.000000"
 preserveAspectRatio="xMidYMid meet">
<metadata>
Created by potrace 1.14, written by Peter Selinger 2001-2017
</metadata>
<g transform="translate(0.000000,4096.000000) scale(0.100000,-0.100000)"
fill="#000000" stroke="none">
<path d="M3745 40949 c-1509 -97 -2828 -1033 -3426 -2430 -150 -352 -244 -715
-296 -1144 -17 -144 -18 -788 -18 -16895 0 -16107 1 -16751 18 -16895 26 -214
53 -366 98 -549 299 -1212 1158 -2220 2316 -2715 355 -151 719 -246 1148 -298
144 -17 788 -18 16895 -18 16107 0 16751 1 16895 18 214 26 366 53 549 98
1212 299 2220 1158 2715 2316 151 355 246 719 298 1148 17 144 18 788 18
16895 0 16107 -1 16751 -18 16895 -26 214 -53 366 -98 549 -325 1319 -1320
2396 -2610 2827 -258 86 -519 143 -844 186 -122 16 -1149 17 -16825 19 -9182
0 -16749 -2 -16815 -7z m17720 -9648 c918 -58 1593 -138 2355 -277 1906 -349
3716 -1015 5231 -1925 2291 -1375 3862 -3249 4459 -5319 185 -643 270 -1246
270 -1918 0 -473 -38 -869 -125 -1312 -423 -2146 -1860 -4112 -4089 -5593
-118 -78 -222 -147 -232 -153 -15 -9 264 -322 2094 -2352 1898 -2105 2112
-2345 2112 -2375 0 -55 -29 -158 -62 -219 -55 -103 -162 -179 -296 -207 -76
-16 -291 -14 -402 4 -598 98 -1541 532 -2830 1305 -939 563 -2072 1314 -3340
2215 -146 103 -269 188 -275 189 -5 0 -113 -34 -240 -76 -1519 -506 -3146
-795 -4870 -868 -309 -13 -1181 -13 -1490 0 -2813 118 -5414 829 -7590 2073
-2520 1442 -4216 3481 -4770 5737 -187 763 -242 1571 -159 2360 82 788 314
1589 680 2350 1006 2086 3032 3870 5704 5022 1791 773 3844 1236 5920 1338
118 6 244 12 280 14 146 7 1507 -3 1665 -13z"/>
<path d="M14785 23284 c-399 -40 -684 -169 -936 -422 -124 -126 -200 -232
-274 -380 -227 -456 -229 -1079 -5 -1547 63 -132 173 -287 278 -394 83 -84
100 -106 129 -176 18 -43 58 -121 88 -172 212 -355 541 -587 951 -670 129 -26
469 -25 609 1 200 37 392 113 550 218 100 65 293 257 363 360 367 539 374
1380 14 1923 -65 98 -137 185 -212 255 -39 36 -56 63 -84 134 -121 304 -370
573 -665 721 -100 50 -286 110 -400 129 -94 16 -331 28 -406 20z"/>
<path d="M19975 23284 c-399 -40 -684 -169 -936 -422 -124 -126 -200 -232
-274 -380 -227 -456 -229 -1079 -5 -1547 63 -132 173 -287 278 -394 83 -84
100 -106 129 -176 18 -43 58 -121 88 -172 212 -355 541 -587 951 -670 129 -26
469 -25 609 1 200 37 392 113 550 218 100 65 293 257 363 360 367 539 374
1380 14 1923 -65 98 -137 185 -212 255 -39 36 -56 63 -84 134 -121 304 -370
573 -665 721 -100 50 -286 110 -400 129 -94 16 -331 28 -406 20z"/>
<path d="M25175 23284 c-399 -40 -684 -169 -936 -422 -124 -126 -200 -232
-274 -380 -227 -456 -229 -1079 -5 -1547 60 -126 169 -283 271 -389 79 -82 96
-105 125 -177 19 -46 59 -125 89 -176 212 -355 541 -587 951 -670 129 -26 469
-25 609 1 200 37 392 113 550 218 100 65 293 257 363 360 367 539 374 1380 14
1923 -64 97 -140 189 -202 245 -30 26 -49 59 -80 135 -128 316 -370 580 -669
730 -100 50 -286 110 -400 129 -94 16 -331 28 -406 20z"/>
</g>
</svg>
